
<svg width="64" height="64" viewBox="0 0 64 64" fill="none" xmlns="http://www.w3.org/2000/svg">
  <!-- Dog Face Shape -->
  <circle cx="32" cy="32" r="30" fill="#FFA500" />
  <circle cx="32" cy="32" r="28" fill="#F8C471" />
  
  <!-- Ears -->
  <path d="M12 16C6 13 4 22 8 26" stroke="brown" stroke-width="3" stroke-linecap="round" />
  <path d="M52 16C58 13 60 22 56 26" stroke="brown" stroke-width="3" stroke-linecap="round" />
  
  <!-- Eyes -->
  <ellipse cx="23" cy="29" rx="4" ry="3.5" fill="black" />
  <ellipse cx="41" cy="29" rx="4" ry="3.5" fill="black" />
  
  <!-- Shine in eyes -->
  <circle cx="24" cy="28" r="1" fill="white" />
  <circle cx="42" cy="28" r="1" fill="white" />
  
  <!-- Nose -->
  <ellipse cx="32" cy="36" rx="4" ry="2.5" fill="#333333" />
  
  <!-- Mouth -->
  <path d="M32 38C32 44 38 46 42 44M32 38C32 44 26 46 22 44" stroke="#333333" stroke-width="2" stroke-linecap="round" />
  
  <!-- Tongue -->
  <path d="M31 40C32 43 33 43 34 40" fill="#FF6B6B" stroke="#FF6B6B" stroke-width="1" />
  
  <!-- Whiskers -->
  <line x1="16" y1="36" x2="24" y2="38" stroke="#333333" stroke-width="1.5" />
  <line x1="16" y1="40" x2="24" y2="40" stroke="#333333" stroke-width="1.5" />
  <line x1="48" y1="36" x2="40" y2="38" stroke="#333333" stroke-width="1.5" />
  <line x1="48" y1="40" x2="40" y2="40" stroke="#333333" stroke-width="1.5" />

  <!-- Cheeks -->
  <circle cx="20" cy="38" r="2" fill="#FFCCCC" opacity="0.6" />
  <circle cx="44" cy="38" r="2" fill="#FFCCCC" opacity="0.6" />
</svg>
