
<svg width="64" height="64" viewBox="0 0 64 64" fill="none" xmlns="http://www.w3.org/2000/svg">
  <!-- Background circle -->
  <circle cx="32" cy="32" r="32" fill="black" />
  
  <!-- Shiba Inu Head Shape -->
  <circle cx="32" cy="32" r="28" fill="white" />
  
  <!-- Ears -->
  <path d="M16 16C10 14 8 19 12 24" stroke="black" stroke-width="2.5" stroke-linecap="round" />
  <path d="M48 16C54 14 56 19 52 24" stroke="black" stroke-width="2.5" stroke-linecap="round" />
  
  <!-- Inner ears -->
  <path d="M15 18C13 17 12 20 14 22" fill="#FEC6A1" />
  <path d="M49 18C51 17 52 20 50 22" fill="#FEC6A1" />
  
  <!-- Eyes -->
  <ellipse cx="23" cy="30" rx="3.5" ry="4" fill="black" />
  <ellipse cx="41" cy="30" rx="3.5" ry="4" fill="black" />
  
  <!-- Eyebrow raised -->
  <path d="M38 24C40 23 44 24 46 26" stroke="black" stroke-width="1.5" stroke-linecap="round" />
  <path d="M20 26C22 25 26 25 28 26" stroke="black" stroke-width="1.5" stroke-linecap="round" />
  
  <!-- Shine in eyes -->
  <circle cx="24" cy="29" r="1" fill="white" />
  <circle cx="42" cy="29" r="1" fill="white" />
  
  <!-- Nose -->
  <ellipse cx="32" cy="38" rx="4" ry="3" fill="black" />
  
  <!-- Hoodie/Jacket collar -->
  <path d="M20 46C24 52 40 52 44 46" fill="#39FF14" stroke="black" stroke-width="2" />
  
  <!-- Mouth - cheeky grin -->
  <path d="M32 41C32 45 37 47 42 45M32 41C32 45 27 47 22 45" stroke="black" stroke-width="1.5" stroke-linecap="round" />
  
  <!-- Cheeks -->
  <circle cx="22" cy="40" r="3" fill="#FEC6A1" opacity="0.8" />
  <circle cx="42" cy="40" r="3" fill="#FEC6A1" opacity="0.8" />
</svg>
