
<svg width="120" height="120" viewBox="0 0 120 120" fill="none" xmlns="http://www.w3.org/2000/svg">
  <!-- Dog Face Shape -->
  <circle cx="60" cy="60" r="55" fill="#FFA500" />
  <circle cx="60" cy="60" r="50" fill="#F8C471" />
  
  <!-- Ears -->
  <path d="M25 30C15 25 10 40 18 48" stroke="brown" stroke-width="4" stroke-linecap="round" />
  <path d="M95 30C105 25 110 40 102 48" stroke="brown" stroke-width="4" stroke-linecap="round" />
  
  <!-- Eyes -->
  <ellipse cx="42" cy="54" rx="8" ry="7" fill="black" />
  <ellipse cx="78" cy="54" rx="8" ry="7" fill="black" />
  
  <!-- Shine in eyes -->
  <circle cx="44" cy="52" r="2" fill="white" />
  <circle cx="80" cy="52" r="2" fill="white" />
  
  <!-- Nose -->
  <ellipse cx="60" cy="68" rx="8" ry="5" fill="#333333" />
  
  <!-- Mouth -->
  <path d="M60 75C60 85 72 88 80 83M60 75C60 85 48 88 40 83" stroke="#333333" stroke-width="3" stroke-linecap="round" />
  
  <!-- Tongue -->
  <path d="M57 80C60 85 63 85 66 80" fill="#FF6B6B" stroke="#FF6B6B" stroke-width="1.5" />
  
  <!-- Whiskers -->
  <line x1="30" y1="68" x2="45" y2="72" stroke="#333333" stroke-width="2" />
  <line x1="30" y1="75" x2="45" y2="75" stroke="#333333" stroke-width="2" />
  <line x1="90" y1="68" x2="75" y2="72" stroke="#333333" stroke-width="2" />
  <line x1="90" y1="75" x2="75" y2="75" stroke="#333333" stroke-width="2" />

  <!-- Cheeks -->
  <circle cx="38" cy="74" r="5" fill="#FFCCCC" opacity="0.6" />
  <circle cx="82" cy="74" r="5" fill="#FFCCCC" opacity="0.6" />
  
  <!-- Eyebrows -->
  <path d="M36 46C40 43 46 43 50 46" stroke="#333333" stroke-width="2" stroke-linecap="round" />
  <path d="M70 46C74 43 80 43 84 46" stroke="#333333" stroke-width="2" stroke-linecap="round" />
</svg>
