
<svg width="120" height="120" viewBox="0 0 120 120" fill="none" xmlns="http://www.w3.org/2000/svg">
  <!-- Dog Face Shape -->
  <circle cx="60" cy="60" r="55" fill="#222222" />
  <circle cx="60" cy="60" r="50" fill="#39FF14" />
  
  <!-- Ears -->
  <path d="M25 35C15 25 10 40 15 50" stroke="black" stroke-width="4" stroke-linecap="round" />
  <path d="M95 35C105 25 110 40 105 50" stroke="black" stroke-width="4" stroke-linecap="round" />
  
  <!-- Eyes -->
  <circle cx="40" cy="55" r="6" fill="black" />
  <circle cx="80" cy="55" r="6" fill="black" />
  
  <!-- Shine in eyes -->
  <circle cx="42" cy="53" r="2" fill="white" />
  <circle cx="82" cy="53" r="2" fill="white" />
  
  <!-- Nose -->
  <ellipse cx="60" cy="70" rx="8" ry="5" fill="black" />
  
  <!-- Mouth -->
  <path d="M60 75C60 82 70 85 80 80M60 75C60 82 50 85 40 80" stroke="black" stroke-width="3" stroke-linecap="round" />
  
  <!-- Tongue -->
  <path d="M57 78C59 82 61 82 63 78" fill="#FF6B6B" stroke="#FF6B6B" stroke-width="1" />
</svg>
