
<svg width="140" height="40" viewBox="0 0 140 40" fill="none" xmlns="http://www.w3.org/2000/svg">
  <path d="M25.6 20c0 10.8-8.8 19.6-19.6 19.6C-4.8 39.6-13.6 30.8-13.6 20c0-10.8 8.8-19.6 19.6-19.6C16.8 0.4 25.6 9.2 25.6 20z" fill="#8DC63F"/>
  <path d="M13.6 15.2c0 4.4-3.6 8-8 8-4.4 0-8-3.6-8-8s3.6-8 8-8c4.4 0 8 3.6 8 8z" fill="#F9E988"/>
  <path d="M9.2 15.6c0 1.6-1.2 2.8-2.8 2.8-1.6 0-2.8-1.2-2.8-2.8 0-1.6 1.2-2.8 2.8-2.8 1.6 0 2.8 1.2 2.8 2.8z" fill="#333"/>
  <path d="M4.4 15.6c0 0.8 0.4 1.2 1.2 1.2 0.8 0 1.2-0.4 1.2-1.2 0-0.8-0.4-1.2-1.2-1.2-0.8 0-1.2 0.4-1.2 1.2z" fill="#FFF"/>
  <path d="M8 25.6c-5.6 0-10-4.4-10-10 0-0.8 0.8-1.6 1.6-1.6s1.6 0.8 1.6 1.6c0 3.6 2.8 6.8 6.8 6.8 0.8 0 1.6 0.8 1.6 1.6 0 0.8-0.8 1.6-1.6 1.6z" fill="#333"/>
  <path d="M17.6 18c-0.4 0-0.8-0.4-0.8-0.8 0-0.4 0.4-0.8 0.8-0.8 0.4 0 0.8 0.4 0.8 0.8 0 0.4-0.4 0.8-0.8 0.8zM21.6 18c-0.4 0-0.8-0.4-0.8-0.8 0-0.4 0.4-0.8 0.8-0.8 0.4 0 0.8 0.4 0.8 0.8 0 0.4-0.4 0.8-0.8 0.8z" fill="#333"/>
  <path d="M20 25.6c-0.4 0-0.8-0.4-0.8-0.8v-1.6c0-0.4 0.4-0.8 0.8-0.8s0.8 0.4 0.8 0.8v1.6c0 0.4-0.4 0.8-0.8 0.8z" fill="#333"/>
  <path d="M16 22.4c-0.4 0-0.8-0.4-0.8-0.8 0-0.4 0.4-0.8 0.8-0.8h8c0.4 0 0.8 0.4 0.8 0.8 0 0.4-0.4 0.8-0.8 0.8h-8z" fill="#333"/>
  <path fill="#39FF14" d="M44 12.8h4.4V28H44zM53.6 28h-4.4V12.8h4v1.6c0.8-1.2 2.4-2 3.6-2 3.6 0 5.6 2.8 5.6 6v9.6h-4.4v-8.4c0-1.6-0.8-2.8-2.4-2.8-1.6 0-2.4 1.2-2.4 2.8V28zM64 20.4c0-4.4 3.2-8 8-8 4.8 0 8 3.6 8 8s-3.2 8-8 8c-4.8 0-8-3.6-8-8zm11.6 0c0-2-1.2-4-3.6-4-2.4 0-3.6 2-3.6 4 0 2 1.2 4 3.6 4 2.4 0 3.6-2 3.6-4zM82 20.4c0-4.4 3.2-8 8-8 4.8 0 8 3.6 8 8s-3.2 8-8 8c-4.8 0-8-3.6-8-8zm11.6 0c0-2-1.2-4-3.6-4-2.4 0-3.6 2-3.6 4 0 2 1.2 4 3.6 4 2.4 0 3.6-2 3.6-4zM100.4 28h-4.4V5.6h4.4v8.8c0.8-1.2 2.4-2 3.6-2 3.6 0 5.6 2.8 5.6 6v9.6h-4.4v-8.4c0-1.6-0.8-2.8-2.4-2.8-1.6 0-2.4 1.2-2.4 2.8V28zM124.8 25.2V28h-1.6c-2.8 0-4-1.6-4-4.4v-7.2h-1.6v-3.6h1.6v-3.6h4.4v3.6h2.8v3.6h-2.8v6.8c0 0.8 0.4 1.2 1.2 1.2h0.8v0.8h-0.8zM140 20c0 0.4-0.4 0.8-0.8 0.8h-11.6c0.4 1.6 1.6 2.8 3.6 2.8 1.6 0 2.4-0.4 3.2-1.2 0.4-0.4 0.8-0.4 1.2 0l1.2 1.2c-1.2 1.6-3.2 2.8-5.6 2.8-4.4 0-8-2.8-8-8 0-5.2 3.2-8 7.6-8 4.4 0 7.6 2.8 7.6 8v0.8c0-0.4 0.4-0.4 0.8-0.4 0.4 0 0.8 0.8 0.8 1.2zm-9.6-4.4c-1.6 0-2.8 0.8-3.2 2.4h6.4c-0.4-1.6-1.6-2.4-3.2-2.4z" />
</svg>
