
<svg width="140" height="40" viewBox="0 0 140 40" fill="none" xmlns="http://www.w3.org/2000/svg">
  <rect x="8" y="8" width="24" height="24" rx="4" fill="#39FF14"/>
  <path d="M16 20C16 16.8 18.8 14 22 14H28V20C28 23.2 25.2 26 22 26H16V20Z" fill="#333"/>
  <path d="M22 19.2C21.6 19.2 21.2 19.6 21.2 20C21.2 20.4 21.6 20.8 22 20.8H24.4C24.8 20.8 25.2 20.4 25.2 20C25.2 19.6 24.8 19.2 24.4 19.2H22Z" fill="#FFF"/>
  <path fill="#39FF14" d="M44 28V12H48V24.4H55.6V28zM64.8 28V24.8C64 25.6 62.8 26.4 61.2 26.4C58 26.4 56 24 56 20V16C56 12 58 9.6 61.2 9.6C62.8 9.6 64 10.4 64.8 11.2V4H68.4V28H64.8ZM62.4 22.8C64 22.8 64.8 21.6 64.8 20V16C64.8 14.4 64 13.2 62.4 13.2C60.8 13.2 60 14.4 60 16V20C60 21.6 60.8 22.8 62.4 22.8ZM76.4 28.4C72.8 28.4 70 26 70 22V16C70 12 72.8 9.6 76.4 9.6C80 9.6 82.8 12 82.8 16V22C82.8 26 80 28.4 76.4 28.4ZM76.4 24.8C78 24.8 78.8 23.6 78.8 22V16C78.8 14.4 78 13.2 76.4 13.2C74.8 13.2 74 14.4 74 16V22C74 23.6 74.8 24.8 76.4 24.8ZM90.4 28.4C87.2 28.4 84 26.4 84 22.4V16C84 12 87.2 9.6 90.4 9.6C94 9.6 96.8 11.6 96.8 16H92.8C92.8 14.4 92 13.2 90.4 13.2C88.8 13.2 88 14.4 88 16V22.4C88 24 88.8 24.8 90.4 24.8C92 24.8 92.8 24 92.8 22.4H96.8C96.8 26.4 94 28.4 90.4 28.4ZM102 28V12H106.4V15.2C107.2 13.6 108.8 11.6 110.8 11.6V16C108 16 106.4 16.8 106.4 19.2V28H102ZM118.4 28.4C114.8 28.4 112 26 112 22V16C112 12 114.8 9.6 118.4 9.6C122 9.6 124.8 12 124.8 16V22C124.8 26 122 28.4 118.4 28.4ZM118.4 24.8C120 24.8 120.8 23.6 120.8 22V16C120.8 14.4 120 13.2 118.4 13.2C116.8 13.2 116 14.4 116 16V22C116 23.6 116.8 24.8 118.4 24.8ZM126.8 28V12H131.2V15.2C132 13.6 133.6 11.6 135.6 11.6V16C132.8 16 131.2 16.8 131.2 19.2V28H126.8ZM136.8 28V12H140.8V28H136.8ZM136.8 10.4V6.4H140.8V10.4H136.8Z" />
</svg>
