
<svg width="140" height="40" viewBox="0 0 140 40" fill="none" xmlns="http://www.w3.org/2000/svg">
  <path d="M20 12C14.4 12 10 16.4 10 22C10 27.6 14.4 32 20 32C25.6 32 30 27.6 30 22C30 16.4 25.6 12 20 12ZM25.2 24.4L20.8 20L25.2 15.6L24 14.4L18 20L24 26L25.2 24.4Z" fill="#39FF14"/>
  <path d="M44 28L40 12H44.8L47.2 24L50 12H53.6L56.4 24L58.8 12H62L58 28H54.8L52 16.8L49.2 28H46.8H44Z" fill="#39FF14"/>
  <path d="M64 28V12H68V28H64Z" fill="#39FF14"/>
  <path d="M76 28V16H73.6V13.6C75.6 13.6 76.8 12.4 76.8 10.8H80V28H76Z" fill="#39FF14"/>
  <path d="M88 28V12H92V16H96V12H100V28H96V20H92V28H88Z" fill="#39FF14"/>
  <path d="M112 28V24.4H108V28H104V12H112C114.8 12 116 14 116 16.4V19.6C116 22 114.8 24 112 24V28ZM108 20H112V16H108V20Z" fill="#39FF14"/>
  <path d="M120 28V12H124V20L130 12H134.4L128 20.8L134.8 28H130L124 21.6V28H120Z" fill="#39FF14"/>
</svg>
