
<svg width="140" height="40" viewBox="0 0 140 40" fill="none" xmlns="http://www.w3.org/2000/svg">
  <path d="M35.2 20C35.2 28.8 28 36 19.2 36C10.4 36 3.2 28.8 3.2 20C3.2 11.2 10.4 4 19.2 4C28 4 35.2 11.2 35.2 20Z" fill="#39FF14"/>
  <path d="M19.2 12L14.4 16.8H24L19.2 12Z" fill="#333"/>
  <path d="M24 16.8V26.4L19.2 21.6L14.4 26.4V16.8H24Z" fill="#333"/>
  <path fill="#39FF14" d="M44 28V12H54.4V15.2H47.6V18.4H53.6V21.6H47.6V24.8H54.4V28zM66.4 28L60 21.6V28H56.4V12H60V18.4L66 12H70.8L63.6 19.2L71.2 28zM78.4 28.4C74 28.4 71.2 25.6 71.2 22V18C71.2 14.4 74 11.6 78.4 11.6C82.8 11.6 85.6 14.4 85.6 18V22C85.6 25.6 82.8 28.4 78.4 28.4ZM78.4 25.2C80.4 25.2 82 24 82 21.6V18.4C82 16 80.4 14.8 78.4 14.8C76.4 14.8 74.8 16 74.8 18.4V21.6C74.8 24 76.4 25.2 78.4 25.2ZM98 21.2C98 25.6 95.6 28.4 91.6 28.4C90.4 28.4 89.2 28 88.4 27.6V34H84.8V12H87.6L88 13.6C88.8 12.8 90.4 11.6 92 11.6C95.6 11.6 98 14 98 18.4V21.2ZM88.4 24.4C89.2 24.8 90 25.2 90.8 25.2C92.8 25.2 94.4 24 94.4 21.2V18.4C94.4 16 93.2 14.8 91.2 14.8C90 14.8 89.2 15.6 88.4 16.4V24.4ZM101.2 20.8H110.8C110.8 24 108.8 25.6 106 25.6C103.6 25.6 101.2 24.4 101.2 20.8ZM110.8 18H106.8C106.4 16.4 105.2 15.2 103.6 15.2C101.6 15.2 100 16.4 100 18.8V21.6C100 24.4 102 28.4 106.4 28.4C110.4 28.4 114.4 25.6 114.4 19.6V18.4C114.4 14 112 11.6 108 11.6C103.6 11.6 100.8 15.2 100.8 18H110.8ZM118.4 34V31.2C119.2 32 120.8 32.4 122.4 32.4C125.6 32.4 128 30.4 128 26.4V12H124.4V26C124.4 28.4 123.2 29.2 121.6 29.2C120.4 29.2 119.2 28.8 118.4 28V12H114.8V34H118.4ZM136.8 28.4C133.2 28.4 129.6 26.4 129.6 22H133.2C133.2 23.6 134.4 25.2 136.8 25.2C138.4 25.2 139.6 24.4 139.6 23.6C139.6 21.2 130 23.2 130 17.2C130 14.4 132.8 11.6 136.8 11.6C140.4 11.6 143.2 14 143.2 17.6H139.6C139.6 16.4 138.4 14.8 136.4 14.8C135.2 14.8 134 15.2 134 16.4C134 18.8 143.6 16.4 143.6 22.8C143.6 25.6 140.8 28.4 136.8 28.4Z" />
</svg>
