
<svg width="140" height="40" viewBox="0 0 140 40" fill="none" xmlns="http://www.w3.org/2000/svg">
  <path d="M20 4C11.2 4 4 11.2 4 20C4 28.8 11.2 36 20 36C28.8 36 36 28.8 36 20C36 11.2 28.8 4 20 4ZM20 32C13.2 32 8 26.8 8 20C8 13.2 13.2 8 20 8C26.8 8 32 13.2 32 20C32 26.8 26.8 32 20 32Z" fill="#39FF14"/>
  <path d="M28 16.8L19.2 25.6L12 18.4L14.4 16L19.2 20.8L25.6 14.4L28 16.8Z" fill="#39FF14"/>
  <path fill="#39FF14" d="M48 28V12H52V28H48zM60.8 28V24.8C60 25.6 58.8 26.4 57.2 26.4C54 26.4 52 24 52 20V16C52 12 54 9.6 57.2 9.6C58.8 9.6 60 10.4 60.8 11.2V10H64.4V28H60.8ZM58.4 22.8C60 22.8 60.8 21.6 60.8 20V16C60.8 14.4 60 13.2 58.4 13.2C56.8 13.2 56 14.4 56 16V20C56 21.6 56.8 22.8 58.4 22.8ZM72 28.4C68.8 28.4 66 26.4 66 22.8V22.4H69.6V22.8C69.6 24 70.4 24.8 72 24.8C73.6 24.8 74 24 74 23.2C74 22 72.8 21.6 70.8 21.2C68.4 20.8 66 20 66 16.8C66 13.6 68.4 12 71.6 12C74.8 12 77.2 13.6 77.2 17.2V17.6H73.6V17.2C73.6 16 73.2 15.2 71.6 15.2C70.4 15.2 69.6 15.6 69.6 16.8C69.6 18 71.2 18.4 73.2 18.8C76 19.2 78 20 78 23.2C78 26.4 75.2 28.4 72 28.4ZM87.2 28V24.8C86.4 25.6 85.2 26.4 83.6 26.4C80.4 26.4 78.4 24 78.4 20V12H82V20C82 21.6 82.8 22.8 84.4 22.8C86 22.8 86.8 21.6 86.8 20V12H90.4V28H87.2ZM98 28.4C94 28.4 91.6 26 91.6 21.6V18.4C91.6 14 94 11.6 98 11.6C102 11.6 104.4 14 104.4 18.4V19.2H95.2V21.6C95.2 24 96.4 25.2 98.4 25.2C100 25.2 100.8 24.4 101.2 23.2H104.8C104.4 26.4 102.4 28.4 98 28.4ZM95.2 16.8H100.8V16.4C100.8 14.4 99.6 13.2 98 13.2C96.4 13.2 95.2 14.4 95.2 16.4V16.8ZM106 28V10H109.6V28H106ZM112 28V10H115.6V28H112ZM123.6 28.4C120 28.4 117.2 26 117.2 22V18C117.2 14 120 11.6 123.6 11.6C127.2 11.6 130 14 130 18V22C130 26 127.2 28.4 123.6 28.4ZM123.6 24.8C125.2 24.8 126 23.6 126 22V18C126 16.4 125.2 15.2 123.6 15.2C122 15.2 121.2 16.4 121.2 18V22C121.2 23.6 122 24.8 123.6 24.8ZM137.6 28.4C134 28.4 131.2 26 131.2 22V18C131.2 14 134 11.6 137.6 11.6C141.2 11.6 144 14 144 18V22C144 26 141.2 28.4 137.6 28.4ZM137.6 24.8C139.2 24.8 140 23.6 140 22V18C140 16.4 139.2 15.2 137.6 15.2C136 15.2 135.2 16.4 135.2 18V22C135.2 23.6 136 24.8 137.6 24.8Z" />
</svg>
